<?xml version="1.0" standalone="no"?>
<!DOCTYPE svg PUBLIC "-//W3C//DTD SVG 20010904//EN"
 "http://www.w3.org/TR/2001/REC-SVG-20010904/DTD/svg10.dtd">
<svg version="1.0" xmlns="http://www.w3.org/2000/svg"
 width="752.000000pt" height="752.000000pt" viewBox="0 0 752.000000 752.000000"
 preserveAspectRatio="xMidYMid meet">

<g transform="translate(0.000000,752.000000) scale(0.100000,-0.100000)"
fill="#000000" stroke="none">
<path d="M4325 6096 c-92 -26 -110 -35 -113 -53 -2 -11 15 -99 38 -194 22 -94
39 -173 38 -174 -2 -2 -22 -12 -45 -24 -51 -26 -83 -69 -83 -113 0 -18 13
-121 28 -229 l28 -197 -33 -18 c-49 -26 -120 -106 -131 -147 -23 -84 25 -156
135 -197 50 -19 72 -21 163 -17 123 5 209 32 289 91 91 67 98 87 137 398 18
150 34 292 34 314 0 73 -57 122 -182 153 l-73 19 -44 203 c-38 180 -51 220
-71 218 -3 0 -54 -15 -115 -33z m104 -73 c16 -56 15 -58 -36 -74 -35 -11 -49
-21 -51 -36 -4 -28 20 -35 68 -18 42 15 44 14 54 -27 5 -24 2 -28 -37 -41 -34
-11 -42 -18 -42 -38 0 -25 1 -25 69 -17 26 3 30 -1 36 -28 l7 -32 -65 -7 c-36
-4 -71 -9 -77 -11 -13 -5 -90 315 -78 327 8 7 106 36 130 38 7 1 17 -16 22
-36z m97 -450 c19 -91 29 -113 50 -113 29 0 28 36 -3 159 -6 23 -4 24 30 18
57 -9 124 -43 143 -72 24 -36 5 -68 -60 -100 -140 -69 -395 -42 -460 47 -18
25 -18 28 -2 52 9 14 30 33 46 41 35 18 32 21 54 -74 16 -70 27 -87 50 -78 20
8 20 36 1 107 -8 30 -15 60 -15 67 0 14 26 20 97 22 l52 1 17 -77z m-41 -198
c118 0 136 2 193 26 74 32 70 51 42 -179 -29 -235 -22 -217 -88 -249 -49 -24
-69 -28 -142 -28 -73 0 -93 4 -142 28 -39 19 -60 36 -63 50 -4 21 -55 386 -55
399 0 3 28 -6 63 -21 56 -23 74 -26 192 -26z"/>
<path d="M4807 5253 c-26 -26 11 -50 506 -333 597 -343 592 -339 581 -350 -7
-6 -919 -547 -1229 -728 -61 -36 -430 -254 -1045 -617 -486 -287 -619 -365
-634 -371 -7 -3 -107 51 -222 119 -115 68 -405 240 -644 382 -239 142 -450
267 -468 278 -27 16 -31 22 -20 32 7 6 294 171 638 365 344 194 738 417 875
495 138 78 431 244 653 370 221 125 402 233 402 240 0 7 -6 18 -14 24 -15 12
18 30 -1446 -799 -333 -188 -741 -419 -907 -514 l-303 -171 3 -715 2 -715 22
-3 23 -3 2 241 3 241 645 -391 c355 -215 662 -401 683 -412 l37 -22 0 -247 c0
-224 2 -247 17 -253 42 -17 43 -7 43 716 l0 687 88 52 c48 29 236 140 417 247
182 107 336 199 342 204 7 6 21 8 30 6 10 -3 240 -132 511 -287 272 -154 499
-281 506 -281 7 0 16 4 21 9 6 5 177 100 380 211 512 281 621 340 628 340 4 0
8 -80 9 -177 3 -170 4 -178 23 -178 20 0 20 8 23 821 2 772 1 822 -15 836 -10
8 -128 78 -263 155 -135 77 -387 221 -561 321 -174 100 -321 182 -326 182 -5
0 -13 -3 -16 -7z m1133 -942 l0 -208 -77 -46 c-43 -25 -266 -156 -497 -291
-230 -135 -420 -246 -422 -246 -3 0 -3 95 -2 211 l3 212 485 287 c267 159 491
289 498 289 9 1 12 -47 12 -208z m0 -610 l0 -329 -232 -128 c-128 -70 -346
-190 -485 -266 -138 -76 -258 -141 -267 -144 -14 -6 -16 25 -16 305 l0 311 23
13 c12 8 114 68 227 134 113 66 324 191 470 277 146 86 268 156 273 156 4 0 7
-148 7 -329z"/>
<path d="M5450 4052 c-60 -30 -65 -102 -6 -102 57 0 115 70 86 105 -16 20 -37
19 -80 -3z"/>
<path d="M5000 3365 c-16 -20 -3 -35 43 -51 l32 -11 3 -106 3 -106 -32 11
c-25 9 -34 8 -47 -5 -22 -23 -2 -43 59 -57 80 -19 79 -21 79 142 0 79 -4 148
-8 154 -4 7 -26 17 -50 24 -24 6 -49 13 -56 16 -7 3 -19 -2 -26 -11z"/>
</g>
</svg>
